<svg width="16" height="16" viewBox="0 0 16 17" fill="none" xmlns="http://www.w3.org/2000/svg">
<g id="Group">
<g id="Group_2">
<g id="Group_3">
<path id="Vector" fill-rule="evenodd" clip-rule="evenodd" d="M11.3488 10.947L16 15.5981L15.0949 16.5032L10.4437 11.8521C9.34046 12.7549 7.93016 13.2966 6.39335 13.2966C2.85872 13.2966 -0.00665283 10.4312 -0.00665283 6.89658C-0.00665283 3.36196 2.85872 0.496582 6.39335 0.496582C9.92797 0.496582 12.7933 3.36196 12.7933 6.89658C12.7933 8.43339 12.2517 9.84369 11.3488 10.947ZM6.39335 12.0166C9.22105 12.0166 11.5133 9.72428 11.5133 6.89658C11.5133 4.06888 9.22105 1.77658 6.39335 1.77658C3.56565 1.77658 1.27335 4.06888 1.27335 6.89658C1.27335 9.72428 3.56565 12.0166 6.39335 12.0166Z" fill="#EEEEEE"/>
</g>
</g>
</g>
</svg>
